<?xml version="1.0" encoding="iso-8859-1"?>
<svg version="1.1" id="Layer_1" xmlns="http://www.w3.org/2000/svg" xmlns:xlink="http://www.w3.org/1999/xlink" x="0px" y="0px"
	 viewBox="0 0 512 512" style="enable-background:new 0 0 512 512;" xml:space="preserve">
<circle style="fill:#FF2746;" cx="256" cy="256" r="256"/>
<path style="fill:#940030;" d="M511.678,243.122L361.798,93.227L150.935,391.015l120.508,120.508
	C405.635,503.536,512,392.199,512,256C512,251.682,511.89,247.389,511.678,243.122z"/>
<path style="fill:#98DEE2;" d="M169.319,398.222h173.365c14.965,0,27.096-12.131,27.096-27.096V112.43
	c0-14.965-12.131-27.096-27.096-27.096H169.319c-14.965,0-27.096,12.131-27.096,27.096v258.698
	C142.222,386.091,154.353,398.222,169.319,398.222z"/>
<path style="fill:#38C6D9;" d="M342.681,85.333H254.85v312.889h87.831c14.965,0,27.096-12.131,27.096-27.096V112.43
	C369.778,97.464,357.647,85.333,342.681,85.333z"/>
<rect x="170.667" y="113.778" style="fill:#386895;" width="170.667" height="85.333"/>
<rect x="254.845" y="113.778" style="fill:#273B7A;" width="86.488" height="85.333"/>
<g>
	<rect x="312.889" y="227.556" style="fill:#263A7A;" width="28.444" height="28.444"/>
	<rect x="265.481" y="227.556" style="fill:#263A7A;" width="28.444" height="28.444"/>
	<rect x="218.074" y="227.556" style="fill:#263A7A;" width="28.444" height="28.444"/>
	<rect x="170.667" y="227.556" style="fill:#263A7A;" width="28.444" height="28.444"/>
	<rect x="265.481" y="284.444" style="fill:#263A7A;" width="28.444" height="28.444"/>
	<rect x="218.074" y="284.444" style="fill:#263A7A;" width="28.444" height="28.444"/>
	<rect x="170.667" y="284.444" style="fill:#263A7A;" width="28.444" height="28.444"/>
	<rect x="312.889" y="284.444" style="fill:#263A7A;" width="28.444" height="85.333"/>
	<rect x="265.481" y="341.333" style="fill:#263A7A;" width="28.444" height="28.444"/>
	<rect x="218.074" y="341.333" style="fill:#263A7A;" width="28.444" height="28.444"/>
	<rect x="170.667" y="341.333" style="fill:#263A7A;" width="28.444" height="28.444"/>
</g>
<g>
</g>
<g>
</g>
<g>
</g>
<g>
</g>
<g>
</g>
<g>
</g>
<g>
</g>
<g>
</g>
<g>
</g>
<g>
</g>
<g>
</g>
<g>
</g>
<g>
</g>
<g>
</g>
<g>
</g>
</svg>
