<?xml version="1.0" encoding="utf-8"?>
<!-- Generator: Adobe Illustrator 25.0.0, SVG Export Plug-In . SVG Version: 6.00 Build 0)  -->
<!DOCTYPE svg PUBLIC "-//W3C//DTD SVG 1.1//EN" "http://www.w3.org/Graphics/SVG/1.1/DTD/svg11.dtd" [
	<!ENTITY ns_extend "http://ns.adobe.com/Extensibility/1.0/">
	<!ENTITY ns_ai "http://ns.adobe.com/AdobeIllustrator/10.0/">
	<!ENTITY ns_graphs "http://ns.adobe.com/Graphs/1.0/">
	<!ENTITY ns_vars "http://ns.adobe.com/Variables/1.0/">
	<!ENTITY ns_imrep "http://ns.adobe.com/ImageReplacement/1.0/">
	<!ENTITY ns_sfw "http://ns.adobe.com/SaveForWeb/1.0/">
	<!ENTITY ns_custom "http://ns.adobe.com/GenericCustomNamespace/1.0/">
	<!ENTITY ns_adobe_xpath "http://ns.adobe.com/XPath/1.0/">
]>
<svg version="1.1" id="Layer_1" xmlns:x="&ns_extend;" xmlns:i="&ns_ai;" xmlns:graph="&ns_graphs;"
	 xmlns="http://www.w3.org/2000/svg" xmlns:xlink="http://www.w3.org/1999/xlink" x="0px" y="0px" width="250px" height="50px"
	 viewBox="0 0 250 50" style="enable-background:new 0 0 250 50;" xml:space="preserve">
<style type="text/css">
	.st0{fill:#F44B00;}
</style>
<metadata>
	<sfw  xmlns="&ns_sfw;">
		<slices></slices>
		<sliceSourceBounds  bottomLeftOrigin="true" height="27" width="248" x="1.4" y="-37"></sliceSourceBounds>
	</sfw>
</metadata>
<g>
	<path class="st0" d="M7.8,35.3c-2-1.1-3.5-2.6-4.7-4.6c-1.2-2-1.7-4.2-1.7-6.6c0-2.4,0.6-4.6,1.7-6.6c1.2-2,2.7-3.5,4.7-4.6
		c2-1.1,4.1-1.7,6.5-1.7c2.4,0,4.5,0.6,6.5,1.7c2,1.1,3.5,2.6,4.6,4.6c1.1,2,1.7,4.2,1.7,6.6c0,2.5-0.6,4.7-1.7,6.6
		c-1.1,2-2.7,3.5-4.7,4.6c-2,1.1-4.1,1.7-6.5,1.7C11.9,36.9,9.8,36.4,7.8,35.3z M18.3,31.4c1.2-0.7,2.1-1.7,2.7-2.9
		c0.6-1.3,1-2.7,1-4.4c0-1.7-0.3-3.1-1-4.4c-0.6-1.3-1.5-2.2-2.7-2.9s-2.5-1-4-1c-1.5,0-2.9,0.3-4,1s-2.1,1.6-2.7,2.9
		c-0.6,1.3-1,2.7-1,4.4c0,1.7,0.3,3.2,1,4.4c0.6,1.3,1.6,2.2,2.7,2.9c1.2,0.7,2.5,1,4,1C15.8,32.4,17.1,32.1,18.3,31.4z"/>
	<path class="st0" d="M35.9,10v26.6h-5V10H35.9z"/>
	<path class="st0" d="M40.8,21.3c0.8-1.6,1.9-2.8,3.3-3.6c1.4-0.8,2.9-1.3,4.6-1.3c1.5,0,2.8,0.3,3.9,0.9c1.1,0.6,2,1.4,2.7,2.3
		v-2.8h5.1v19.9h-5.1v-2.9c-0.6,0.9-1.5,1.7-2.7,2.3c-1.1,0.6-2.5,0.9-3.9,0.9c-1.7,0-3.2-0.4-4.6-1.3c-1.4-0.9-2.5-2.1-3.3-3.7
		c-0.8-1.6-1.2-3.4-1.2-5.4C39.6,24.6,40,22.8,40.8,21.3z M54.6,23.6c-0.5-0.9-1.1-1.5-1.9-2c-0.8-0.5-1.7-0.7-2.6-0.7
		s-1.8,0.2-2.6,0.7s-1.4,1.1-1.9,2c-0.5,0.9-0.7,1.9-0.7,3.1c0,1.2,0.2,2.2,0.7,3.2c0.5,0.9,1.1,1.6,1.9,2.1
		c0.8,0.5,1.7,0.7,2.6,0.7c0.9,0,1.8-0.2,2.6-0.7c0.8-0.5,1.5-1.1,1.9-2c0.5-0.9,0.7-1.9,0.7-3.2C55.3,25.5,55.1,24.4,54.6,23.6z"/>
	<path class="st0" d="M65.3,21.3c0.8-1.5,2-2.7,3.5-3.6c1.5-0.9,3.2-1.3,5.1-1.3c2.5,0,4.5,0.6,6.1,1.9c1.6,1.2,2.7,3,3.3,5.2h-5.4
		c-0.3-0.9-0.8-1.5-1.5-2c-0.7-0.5-1.5-0.7-2.5-0.7c-1.4,0-2.6,0.5-3.4,1.6c-0.8,1-1.3,2.5-1.3,4.4c0,1.9,0.4,3.4,1.3,4.4
		c0.8,1,2,1.6,3.4,1.6c2,0,3.4-0.9,4-2.7h5.4c-0.6,2.2-1.6,3.9-3.3,5.1c-1.6,1.3-3.7,1.9-6.1,1.9c-1.9,0-3.6-0.4-5.1-1.3
		c-1.5-0.9-2.7-2.1-3.5-3.6c-0.8-1.5-1.3-3.4-1.3-5.4C64,24.6,64.4,22.8,65.3,21.3z"/>
	<path class="st0" d="M86.9,21.3c0.8-1.6,1.9-2.8,3.3-3.6c1.4-0.8,2.9-1.3,4.6-1.3c1.5,0,2.8,0.3,3.9,0.9c1.1,0.6,2,1.4,2.7,2.3
		v-2.8h5.1v19.9h-5.1v-2.9c-0.6,0.9-1.5,1.7-2.7,2.3c-1.1,0.6-2.5,0.9-3.9,0.9c-1.7,0-3.2-0.4-4.6-1.3c-1.4-0.9-2.5-2.1-3.3-3.7
		c-0.8-1.6-1.2-3.4-1.2-5.4C85.7,24.6,86.1,22.8,86.9,21.3z M100.7,23.6c-0.5-0.9-1.1-1.5-1.9-2c-0.8-0.5-1.7-0.7-2.6-0.7
		c-0.9,0-1.8,0.2-2.6,0.7c-0.8,0.5-1.4,1.1-1.9,2c-0.5,0.9-0.7,1.9-0.7,3.1c0,1.2,0.2,2.2,0.7,3.2c0.5,0.9,1.1,1.6,1.9,2.1
		c0.8,0.5,1.7,0.7,2.6,0.7c0.9,0,1.8-0.2,2.6-0.7c0.8-0.5,1.5-1.1,1.9-2c0.5-0.9,0.7-1.9,0.7-3.2C101.4,25.5,101.1,24.4,100.7,23.6z
		"/>
	<path class="st0" d="M116.4,10v26.6h-5V10H116.4z"/>
	<path class="st0" d="M121.4,21.3c0.8-1.5,2-2.7,3.5-3.6c1.5-0.9,3.2-1.3,5.1-1.3c2.5,0,4.5,0.6,6.1,1.9c1.6,1.2,2.7,3,3.3,5.2h-5.4
		c-0.3-0.9-0.8-1.5-1.5-2c-0.7-0.5-1.5-0.7-2.5-0.7c-1.4,0-2.6,0.5-3.4,1.6s-1.3,2.5-1.3,4.4c0,1.9,0.4,3.4,1.3,4.4
		c0.8,1,2,1.6,3.4,1.6c2,0,3.4-0.9,4-2.7h5.4c-0.6,2.2-1.6,3.9-3.3,5.1S132.4,37,130,37c-1.9,0-3.6-0.4-5.1-1.3
		c-1.5-0.9-2.7-2.1-3.5-3.6c-0.8-1.5-1.3-3.4-1.3-5.4C120.1,24.6,120.5,22.8,121.4,21.3z"/>
	<path class="st0" d="M161.9,16.7v19.9h-5.1v-2.5c-0.6,0.9-1.5,1.5-2.5,2c-1,0.5-2.2,0.7-3.4,0.7c-1.6,0-2.9-0.3-4.1-1
		c-1.2-0.7-2.1-1.6-2.8-2.9c-0.7-1.3-1-2.8-1-4.6V16.7h5v11c0,1.6,0.4,2.8,1.2,3.7s1.9,1.3,3.2,1.3c1.4,0,2.5-0.4,3.3-1.3
		s1.2-2.1,1.2-3.7v-11H161.9z"/>
	<path class="st0" d="M171.9,10v26.6h-5V10H171.9z"/>
	<path class="st0" d="M176.8,21.3c0.8-1.6,1.9-2.8,3.3-3.6c1.4-0.8,2.9-1.3,4.6-1.3c1.5,0,2.8,0.3,3.9,0.9c1.1,0.6,2,1.4,2.7,2.3
		v-2.8h5.1v19.9h-5.1v-2.9c-0.6,0.9-1.5,1.7-2.7,2.3c-1.1,0.6-2.5,0.9-3.9,0.9c-1.7,0-3.2-0.4-4.6-1.3c-1.4-0.9-2.5-2.1-3.3-3.7
		c-0.8-1.6-1.2-3.4-1.2-5.4C175.6,24.6,176,22.8,176.8,21.3z M190.6,23.6c-0.5-0.9-1.1-1.5-1.9-2c-0.8-0.5-1.7-0.7-2.6-0.7
		c-0.9,0-1.8,0.2-2.6,0.7s-1.4,1.1-1.9,2c-0.5,0.9-0.7,1.9-0.7,3.1c0,1.2,0.2,2.2,0.7,3.2c0.5,0.9,1.1,1.6,1.9,2.1
		c0.8,0.5,1.7,0.7,2.6,0.7c0.9,0,1.8-0.2,2.6-0.7c0.8-0.5,1.5-1.1,1.9-2c0.5-0.9,0.7-1.9,0.7-3.2C191.3,25.5,191,24.4,190.6,23.6z"
		/>
	<path class="st0" d="M207.1,20.9v9.6c0,0.7,0.2,1.2,0.5,1.5c0.3,0.3,0.9,0.5,1.6,0.5h2.3v4.2h-3.2c-4.2,0-6.4-2.1-6.4-6.2v-9.6
		h-2.4v-4.1h2.4v-4.9h5.1v4.9h4.5v4.1H207.1z"/>
	<path class="st0" d="M218.9,35.7c-1.5-0.9-2.7-2.1-3.6-3.6c-0.9-1.6-1.3-3.4-1.3-5.4s0.5-3.8,1.4-5.4c0.9-1.6,2.1-2.8,3.7-3.6
		c1.6-0.9,3.3-1.3,5.2-1.3c1.9,0,3.7,0.4,5.2,1.3c1.6,0.9,2.8,2.1,3.7,3.6c0.9,1.6,1.4,3.4,1.4,5.4s-0.5,3.8-1.4,5.4
		c-0.9,1.6-2.2,2.8-3.7,3.6c-1.6,0.9-3.3,1.3-5.3,1.3C222.2,37,220.5,36.6,218.9,35.7z M226.7,32c0.8-0.4,1.4-1.1,1.9-2
		c0.5-0.9,0.7-2,0.7-3.2c0-1.9-0.5-3.4-1.5-4.4c-1-1-2.2-1.5-3.7-1.5c-1.4,0-2.6,0.5-3.6,1.5c-1,1-1.5,2.5-1.5,4.4
		c0,1.9,0.5,3.4,1.4,4.4c0.9,1,2.1,1.5,3.6,1.5C225,32.6,225.9,32.4,226.7,32z"/>
	<path class="st0" d="M245.8,17.4c1-0.6,2.2-0.9,3.6-0.9v5.3H248c-1.6,0-2.8,0.4-3.6,1.1c-0.8,0.7-1.2,2-1.2,3.9v9.9h-5V16.7h5v3.1
		C243.9,18.8,244.7,18,245.8,17.4z"/>
</g>
</svg>
